<svg width="20" height="20" viewBox="0 0 20 20" fill="none" xmlns="http://www.w3.org/2000/svg">
<path fill-rule="evenodd" clip-rule="evenodd" d="M13.6666 0.833252C16.7042 0.833252 19.1666 3.29569 19.1666 6.33325V13.6666C19.1666 16.7042 16.7042 19.1666 13.6666 19.1666H6.33331C3.29575 19.1666 0.833313 16.7042 0.833313 13.6666V6.33325C0.833313 3.29569 3.29575 0.833252 6.33331 0.833252H13.6666ZM12.75 3.58325H7.24998C5.2863 3.58325 3.68316 5.12689 3.5878 7.06692L3.58331 7.24992V12.7499C3.58331 14.7136 5.12695 16.3167 7.06698 16.4121L7.24998 16.4166H12.75C14.7137 16.4166 16.3168 14.8729 16.4122 12.9329L16.4166 12.7499V7.24992C16.4166 5.28624 14.873 3.6831 12.933 3.58774L12.75 3.58325Z" fill="#969696"/>
</svg>
