<?xml version="1.0" standalone="no"?>
<!DOCTYPE svg PUBLIC "-//W3C//DTD SVG 20010904//EN"
 "http://www.w3.org/TR/2001/REC-SVG-20010904/DTD/svg10.dtd">
<svg version="1.0" xmlns="http://www.w3.org/2000/svg"
 width="1280.000000pt" height="960.000000pt" viewBox="0 0 1280.000000 960.000000"
 preserveAspectRatio="xMidYMid meet">
<g transform="translate(0.000000,960.000000) scale(0.100000,-0.100000)"
fill="#000000" stroke="none">
<path d="M2754 9388 c-17 -25 9 -1493 36 -2068 12 -258 36 -977 50 -1480 23
-840 63 -1820 76 -1877 11 -41 -74 -49 1179 108 352 44 690 83 751 86 104 5
112 5 133 -16 11 -11 21 -31 21 -43 0 -13 -27 -78 -60 -145 -66 -134 -129
-312 -155 -438 -22 -104 -32 -383 -16 -414 22 -41 49 -43 254 -16 240 32 268
38 287 67 34 53 131 144 208 195 228 152 559 273 937 342 468 85 1041 86 1446
0 52 -11 118 -25 147 -31 49 -10 66 -8 185 21 221 55 268 90 190 144 -47 32
-391 194 -586 276 -167 70 -241 98 -512 193 -285 100 -322 121 -277 160 27 25
69 34 382 88 942 161 1899 334 1956 354 l39 13 7 74 c10 115 42 2111 54 3420
7 747 7 766 -12 773 -10 4 -383 20 -829 36 -445 16 -999 36 -1230 45 -503 18
-1233 40 -2015 60 -601 16 -2266 69 -2501 80 -109 5 -139 4 -145 -7z"/>
<path d="M8930 3565 c-63 -13 -725 -147 -1470 -299 -2422 -492 -3083 -629
-3126 -648 -14 -7 -35 -29 -45 -51 l-20 -38 45 -73 c66 -106 111 -152 279
-287 84 -68 181 -148 217 -179 36 -31 157 -132 270 -225 314 -258 475 -402
496 -441 l19 -36 -30 -24 c-16 -13 -112 -60 -213 -105 l-184 -82 6 -38 c5 -33
2 -40 -29 -68 -20 -17 -47 -31 -61 -31 -14 0 -39 -7 -56 -16 l-30 -16 5 -79
c3 -44 16 -109 28 -144 l22 -65 34 6 c69 13 182 -71 341 -253 34 -40 89 -89
122 -110 33 -21 91 -60 128 -87 55 -40 140 -86 158 -86 12 0 1 59 -16 80 -26
33 -25 58 2 62 14 2 24 12 28 28 7 33 64 62 106 54 20 -4 43 0 64 11 19 10 42
14 57 10 18 -4 90 28 311 140 158 80 294 154 302 163 8 9 32 29 52 44 26 20
35 33 31 47 -7 26 1 31 370 217 321 162 354 185 328 226 -13 21 3 54 53 109
31 36 289 161 396 193 113 33 726 203 1125 311 176 48 523 143 770 212 248 68
590 163 760 209 404 110 467 129 548 166 59 27 68 35 78 69 16 51 4 87 -41
130 -66 63 -496 301 -880 487 -107 52 -357 173 -555 269 -532 258 -528 257
-610 260 -45 1 -111 -6 -185 -22z"/>
<path d="M2960 2794 c-52 -13 -103 -26 -113 -29 -45 -11 -54 -17 -68 -48 -17
-38 -73 -71 -99 -57 -9 5 -71 18 -137 30 -114 19 -125 19 -189 4 -38 -8 -73
-19 -79 -24 -5 -4 -23 -10 -40 -13 -165 -29 -195 -43 -233 -109 -16 -29 -39
-61 -49 -71 -25 -22 -239 -77 -300 -77 l-46 0 6 40 c4 33 1 46 -19 70 -39 45
-56 46 -196 9 -44 -11 -63 -41 -97 -152 -20 -64 -20 -70 -4 -100 47 -93 1447
-1433 1581 -1513 51 -31 -21 -47 617 132 905 254 1262 361 1291 385 6 5 10 26
10 46 -2 35 -4 38 -35 41 -24 3 -51 21 -107 74 -41 39 -74 77 -74 85 0 8 10
32 22 53 l23 39 -30 31 c-16 17 -40 33 -52 36 -12 3 -25 14 -28 24 -3 10 -21
30 -39 44 -19 14 -47 38 -63 53 -120 114 -145 134 -161 129 -59 -17 -88 -17
-112 2 -14 10 -36 22 -50 25 -14 3 -54 35 -89 71 -58 58 -63 67 -55 93 4 15 8
31 8 35 1 4 -55 60 -124 124 -125 116 -125 116 -167 110 -47 -6 -93 21 -93 55
0 13 -7 19 -23 19 -24 0 -89 60 -100 93 -4 9 -14 17 -23 17 -25 0 -103 68
-110 96 -3 13 -14 24 -23 24 -9 0 -39 18 -66 41 -42 35 -55 40 -82 36 -28 -5
-37 -1 -55 24 -12 16 -24 29 -27 28 -3 0 -49 -11 -101 -25z"/>
</g>
</svg>
