<svg width="48" height="48" viewBox="0 0 48 48" fill="none" xmlns="http://www.w3.org/2000/svg">
<path d="M47.5 24C47.5 36.9787 36.9787 47.5 24 47.5C11.0213 47.5 0.5 36.9787 0.5 24C0.5 11.0213 11.0213 0.5 24 0.5C36.9787 0.5 47.5 11.0213 47.5 24Z" fill="white" stroke="#DBDBDB"/>
<path fill-rule="evenodd" clip-rule="evenodd" d="M26.4842 19.1507C26.1267 18.7932 25.5492 18.7932 25.1917 19.1507L20.9842 23.3582C20.6267 23.7157 20.6267 24.2932 20.9842 24.6507L25.1917 28.8582C25.5492 29.2157 26.1267 29.2157 26.4842 28.8582C26.8417 28.5007 26.8417 27.9232 26.4842 27.5657L22.9275 23.9999L26.4842 20.4432C26.8417 20.0857 26.8325 19.499 26.4842 19.1507Z" fill="#969696"/>
</svg>
