<svg width="48" height="48" viewBox="0 0 48 48" fill="none" xmlns="http://www.w3.org/2000/svg">
<path d="M47.5 24C47.5 36.9787 36.9787 47.5 24 47.5C11.0213 47.5 0.5 36.9787 0.5 24C0.5 11.0213 11.0213 0.5 24 0.5C36.9787 0.5 47.5 11.0213 47.5 24Z" fill="white" stroke="#DBDBDB"/>
<path fill-rule="evenodd" clip-rule="evenodd" d="M21.5181 18.7693C21.1606 19.1268 21.1606 19.7043 21.5181 20.0618L25.0748 23.6184L21.5181 27.1751C21.1606 27.5326 21.1606 28.1101 21.5181 28.4676C21.8756 28.8251 22.4531 28.8251 22.8106 28.4676L27.0181 24.2601C27.3756 23.9026 27.3756 23.3251 27.0181 22.9676L22.8106 18.7601C22.4623 18.4118 21.8756 18.4118 21.5181 18.7693Z" fill="#969696"/>
</svg>
