<svg width="16" height="16" viewBox="0 0 16 16" fill="none" xmlns="http://www.w3.org/2000/svg">
<path fill-rule="evenodd" clip-rule="evenodd" d="M8 0.5C5.96312 0.5 5.70813 0.50875 4.90812 0.545C2.18438 0.67 0.670625 2.18125 0.545625 4.9075C0.50875 5.70813 0.5 5.96312 0.5 8C0.5 10.0369 0.50875 10.2925 0.545 11.0925C0.67 13.8162 2.18125 15.33 4.9075 15.455C5.70813 15.4913 5.96312 15.5 8 15.5C10.0369 15.5 10.2925 15.4913 11.0925 15.455C13.8137 15.33 15.3313 13.8187 15.4544 11.0925C15.4913 10.2925 15.5 10.0369 15.5 8C15.5 5.96312 15.4913 5.70813 15.455 4.90812C15.3325 2.18688 13.8194 0.670625 11.0931 0.545625C10.2925 0.50875 10.0369 0.5 8 0.5ZM8 4.14869C5.87313 4.14869 4.14875 5.87307 4.14875 7.99994C4.14875 10.1268 5.87313 11.8518 8 11.8518C10.1269 11.8518 11.8513 10.1274 11.8513 7.99994C11.8513 5.87307 10.1269 4.14869 8 4.14869ZM8 10.4999C6.61937 10.4999 5.49999 9.38117 5.49999 7.99992C5.49999 6.61929 6.61937 5.49992 8 5.49992C9.38062 5.49992 10.5 6.61929 10.5 7.99992C10.5 9.38117 9.38062 10.4999 8 10.4999ZM12.0037 3.09678C11.5062 3.09678 11.1031 3.4999 11.1031 3.99678C11.1031 4.49365 11.5062 4.89678 12.0037 4.89678C12.5006 4.89678 12.9031 4.49365 12.9031 3.99678C12.9031 3.4999 12.5006 3.09678 12.0037 3.09678Z" fill="#969696"/>
</svg>
